<?xml version="1.0" standalone="no"?>
<!DOCTYPE svg PUBLIC "-//W3C//DTD SVG 1.1//EN" "http://www.w3.org/Graphics/SVG/1.1/DTD/svg11.dtd"><svg xmlns="http://www.w3.org/2000/svg" style="background-color:#FFF" width="409.49" height="409.49"><path stroke="black" fill="none" stroke-width="1" d="M41.63, 275.5L41.25, 274.03L41.13, 272.11L41.39, 270.16L42.06, 268.25L43.1, 266.51L44.42, 265.05L45.97, 263.9L47.7, 263.07L49.56, 262.59L51.49, 262.48L53.44, 262.74L55.35, 263.41L81.28, 275.5"/><path stroke="black" fill="none" stroke-width="1" d="M324.42, 124.5L324.42, 188.33L324.22, 190.34L323.64, 192.22L322.71, 193.92L321.49, 195.4L320.01, 196.62L318.31, 197.54L316.44, 198.12L314.42, 198.33L312.41, 198.12L310.53, 197.54L308.83, 196.62L307.35, 195.4L306.13, 193.92L305.21, 192.22L304.63, 190.34L304.42, 188.33L304.42, 124.5M105.06, 124.5L105.06, 188.33L104.85, 190.34L104.27, 192.22L103.35, 193.92L102.13, 195.4L100.65, 196.62L98.95, 197.54L97.07, 198.12L95.06, 198.33L93.04, 198.12L91.16, 197.54L89.46, 196.62L87.98, 195.4L86.76, 193.92L85.84, 192.22L85.26, 190.34L85.06, 188.33L85.06, 124.5"/><path stroke="black" fill="none" stroke-width="1" d="M359, 255.98L357.96, 256.07L356.12, 256.59L354.4, 257.45L352.87, 258.64L351.58, 260.12L350.58, 261.88L349.31, 264.29L347.79, 266.29L346.02, 267.9L344, 269.1L330.27, 275.5"/><path stroke="black" fill="none" stroke-width="1" d="M100.01, 275.5L58.69, 256.24L56.95, 255.2L55.5, 253.88L54.35, 252.33L53.52, 250.59L53.04, 248.74L52.92, 246.81L53.19, 244.86L53.86, 242.95L54.89, 241.21L56.21, 239.75L57.77, 238.6L59.5, 237.78L61.36, 237.29L63.29, 237.18L65.23, 237.44L67.15, 238.11L111.49, 258.79M111.49, 258.79L113.23, 259.82L114.68, 261.14L115.83, 262.7L116.66, 264.43L117.14, 266.29L117.25, 268.21L116.99, 270.16L116.32, 272.07L115.62, 273.33L114.76, 274.46L113.76, 275.45L113.69, 275.5"/><path stroke="black" fill="none" stroke-width="1" d="M8.89, 275.5L8.88, 274.92L9.12, 272.08L9.65, 269.24L10.47, 266.43L11.59, 263.66L30.76, 222.55L32.11, 219.99L33.69, 217.6L35.48, 215.39L37.48, 213.38L39.67, 211.56L42.03, 209.97L44.56, 208.61L47.24, 207.48L50.02, 206.62L52.84, 206.04L55.67, 205.74L58.51, 205.72L61.34, 205.98L64.13, 206.52L66.88, 207.34L69.56, 208.43L125.76, 234.64L130.31, 237.04L134.56, 239.84L138.48, 243.03L142.06, 246.58L145.28, 250.47L148.11, 254.67L150.54, 259.16L152.54, 263.93L153.74, 267.65L154.65, 271.4L155.29, 275.19L155.32, 275.5M359, 213.99L356.85, 213.54L351.87, 212.99L346.84, 212.92L341.78, 213.35L336.74, 214.29L331.74, 215.75L326.83, 217.75L291.18, 234.37L287.04, 236.53L283.17, 239.02L279.58, 241.79L276.29, 244.84L273.3, 248.13L270.62, 251.65L268.25, 255.36L266.22, 259.26L264.52, 263.3L263.16, 267.47L262.16, 271.74L261.61, 275.5"/><path stroke="black" fill="none" stroke-width="1" d="M28.88, 275.5L29.11, 273.87L29.72, 272.11L48.89, 231.01L49.81, 229.46L51, 228.13L52.44, 227.06L54.08, 226.27L55.85, 225.82L57.64, 225.71L59.4, 225.96L61.11, 226.56L117.31, 252.77L120.1, 254.24L122.7, 255.96L125.11, 257.92L127.31, 260.1L129.28, 262.49L131.02, 265.07L132.51, 267.84L133.74, 270.77M133.74, 270.77L134.69, 273.81L135.04, 275.5"/><path stroke="black" fill="none" stroke-width="1" d="M281.8, 275.5L282.47, 272.67L283.41, 269.85L284.62, 267.13L286.07, 264.53L287.77, 262.06L289.7, 259.75L291.86, 257.62L294.24, 255.69L296.84, 253.98L299.64, 252.5L335.29, 235.88L338.31, 234.65L341.38, 233.75L344.47, 233.17L347.58, 232.91L350.67, 232.95L353.73, 233.29L356.73, 233.92L359, 234.62"/></svg>