<?xml version="1.0" standalone="no"?>
<!DOCTYPE svg PUBLIC "-//W3C//DTD SVG 20010904//EN"
 "http://www.w3.org/TR/2001/REC-SVG-20010904/DTD/svg10.dtd">
<svg version="1.0" xmlns="http://www.w3.org/2000/svg"
 width="120" height="60" viewBox="0 0 1035.000000 395.000000"
 preserveAspectRatio="xMidYMid meet">

<g transform="translate(0.000000,395.000000) scale(0.100000,-0.100000)"
fill="#000000" stroke="none">
<path d="M875 3710 c-199 -30 -373 -150 -448 -307 -30 -64 -32 -74 -32 -184 0
-113 1 -116 38 -191 83 -169 264 -282 487 -304 l70 -7 0 -311 c0 -265 2 -315
15 -334 30 -42 113 -45 156 -6 18 16 19 38 19 335 l0 318 553 3 c491 3 559 6
612 21 109 33 186 77 262 153 95 93 135 174 141 284 4 74 3 77 -23 98 -19 15
-42 22 -70 22 -64 0 -84 -22 -100 -109 -23 -118 -85 -200 -193 -255 -86 -43
-130 -46 -802 -46 -679 0 -694 1 -791 51 -63 31 -126 95 -156 157 -90 185 44
399 279 442 31 6 178 9 341 8 l287 -3 -36 -45 c-51 -64 -73 -112 -90 -193 -19
-88 -12 -123 29 -148 77 -46 149 -6 160 89 3 28 15 71 25 94 41 91 159 175
281 198 76 14 1488 14 1567 -1 127 -23 232 -99 280 -202 73 -157 -18 -345
-203 -418 -55 -22 -72 -23 -353 -26 -162 -2 -305 -6 -317 -8 -50 -11 -77 -70
-53 -116 22 -40 61 -49 210 -49 l140 0 0 -310 0 -310 28 -29 c15 -17 36 -31
47 -32 51 -4 78 3 100 26 l25 24 0 314 0 314 68 7 c226 23 406 137 488 309
128 271 -37 567 -371 664 -56 16 -154 18 -1340 19 -704 1 -1302 -2 -1330 -6z"/>
<path d="M5558 2573 c-3 -230 -8 -324 -17 -341 -21 -38 -70 -62 -129 -62 -89
0 -130 34 -146 120 l-6 36 -53 -6 c-51 -5 -52 -6 -55 -39 -5 -48 23 -115 64
-150 77 -68 239 -80 348 -27 31 15 64 39 74 54 43 61 47 93 47 417 l0 310 -61
3 -62 3 -4 -318z"/>
<path d="M8270 2814 c0 -42 5 -105 12 -140 l11 -64 38 0 c35 0 39 3 49 38 7
20 14 83 17 140 l6 102 -67 0 -66 0 0 -76z"/>
<path d="M6085 2663 c-140 -50 -203 -154 -193 -317 8 -122 60 -196 174 -248
41 -19 66 -23 149 -22 123 0 197 25 260 88 54 55 75 116 75 220 0 131 -55 218
-169 269 -65 30 -226 35 -296 10z m230 -82 c82 -37 121 -116 112 -226 -10
-129 -83 -200 -207 -200 -120 0 -193 68 -206 191 -11 109 28 193 108 233 54
27 137 28 193 2z"/>
<path d="M6853 2666 c-116 -37 -166 -135 -113 -222 28 -44 80 -67 234 -104
165 -39 186 -50 186 -94 0 -42 -31 -71 -92 -86 -100 -25 -207 10 -238 79 -15
33 -15 33 -69 27 -30 -4 -57 -9 -60 -11 -9 -9 32 -84 63 -114 88 -85 330 -94
447 -16 47 30 84 103 76 150 -13 82 -56 108 -267 160 -80 20 -153 44 -163 53
-12 10 -17 27 -15 46 4 43 53 66 136 66 78 0 127 -20 150 -60 16 -30 19 -31
69 -27 29 2 55 6 59 9 11 11 -24 74 -55 101 -18 14 -55 33 -83 42 -63 18 -207
19 -265 1z"/>
<path d="M7625 2656 c-77 -32 -146 -104 -166 -172 -8 -27 -14 -83 -14 -124 1
-93 27 -152 92 -209 63 -56 127 -76 243 -76 110 0 176 19 233 66 31 25 77 93
77 113 0 2 -25 8 -55 11 l-55 7 -47 -50 c-54 -57 -110 -78 -180 -68 -49 6
-110 35 -135 63 -22 24 -48 86 -48 113 0 20 5 20 266 20 l267 0 -7 63 c-13
114 -65 190 -162 238 -40 19 -68 24 -149 27 -88 2 -107 0 -160 -22z m269 -89
c44 -34 64 -62 72 -105 l7 -32 -199 2 -199 3 3 25 c6 42 48 96 94 119 64 33
170 27 222 -12z"/>
<path d="M8709 2665 c-25 -8 -61 -30 -82 -51 -88 -88 -46 -202 88 -243 33 -10
107 -29 165 -42 150 -33 182 -69 118 -133 -24 -24 -46 -35 -82 -40 -105 -16
-193 15 -224 80 l-17 36 -54 -6 c-30 -4 -57 -9 -59 -11 -10 -10 46 -101 78
-127 95 -74 321 -77 428 -4 106 73 109 201 5 255 -21 10 -105 35 -188 55 -82
21 -158 44 -167 53 -40 36 -7 97 59 109 96 18 194 -11 218 -65 9 -20 15 -22
62 -19 29 3 55 7 58 10 12 12 -9 62 -40 92 -43 43 -126 66 -236 65 -46 0 -105
-7 -130 -14z"/>
<path d="M593 1950 c-88 -35 -123 -77 -236 -287 -115 -210 -127 -239 -127
-293 0 -53 47 -139 97 -176 45 -34 621 -269 713 -291 170 -40 377 9 504 121
l50 43 188 -76 c103 -41 187 -76 185 -77 -1 -1 -291 -118 -645 -259 -661 -265
-682 -275 -682 -327 0 -11 13 -33 29 -49 22 -22 39 -29 68 -29 27 0 253 85
755 285 l716 286 733 -292 c715 -285 733 -291 770 -280 38 12 69 50 69 85 0
45 -42 65 -674 317 -346 137 -636 254 -644 258 -10 5 48 33 178 85 l193 77 41
-39 c119 -115 329 -168 503 -127 73 17 449 166 513 203 155 90 249 267 221
418 -40 215 -229 366 -476 381 -119 7 -175 -7 -426 -107 -252 -101 -285 -119
-354 -191 -91 -96 -136 -223 -116 -331 5 -29 9 -54 8 -55 -1 0 -123 -49 -270
-107 l-269 -107 -267 106 -268 106 9 51 c26 142 -59 315 -198 404 -28 18 -193
90 -365 160 -295 118 -319 126 -394 130 -64 3 -90 0 -132 -16z m432 -266 c320
-127 359 -147 405 -201 120 -146 41 -352 -159 -410 -110 -32 -161 -20 -501
116 -179 72 -312 131 -322 143 -10 11 -18 30 -18 42 0 27 194 385 222 409 11
9 34 17 52 17 17 0 162 -52 321 -116z m2716 29 c187 -83 232 -282 96 -417 -48
-47 -69 -58 -277 -141 l-225 -90 -90 1 c-104 1 -158 20 -225 80 -62 56 -84
106 -84 184 1 80 25 131 88 187 36 32 91 58 263 126 120 47 227 88 238 91 45
11 171 -1 216 -21z"/>
<path d="M695 1675 c-30 -29 -33 -74 -7 -103 19 -23 483 -212 520 -212 37 0
79 27 90 58 11 32 -6 85 -29 94 -525 211 -527 211 -574 163z"/>
<path d="M604 1480 c-28 -11 -54 -48 -54 -78 0 -12 10 -33 23 -45 12 -13 126
-64 252 -115 263 -105 297 -111 339 -61 63 74 30 102 -261 217 -230 91 -258
99 -299 82z"/>
<path d="M3685 1541 c-31 -10 -48 -23 -77 -62 -22 -30 -48 -44 -174 -93 -135
-53 -153 -58 -203 -53 -62 7 -113 -10 -130 -41 -44 -83 48 -143 198 -129 68 6
363 121 417 162 42 32 94 109 94 140 0 26 -42 75 -64 75 -8 0 -20 2 -28 4 -7
2 -22 1 -33 -3z"/>
<path d="M5210 1355 l0 -405 65 0 65 0 0 143 0 142 62 50 c34 28 70 56 79 62
15 11 38 -12 191 -192 l173 -204 83 -1 c45 0 82 2 82 5 0 3 -95 111 -211 241
-116 130 -207 240 -202 244 4 4 89 71 188 150 99 79 187 149 195 156 12 12 1
14 -72 14 l-86 0 -236 -195 c-130 -107 -238 -195 -241 -195 -3 0 -5 88 -5 195
l0 195 -65 0 -65 0 0 -405z"/>
<path d="M6160 1705 l0 -55 60 0 60 0 0 55 0 55 -60 0 -60 0 0 -55z"/>
<path d="M7688 1368 c1 -216 2 -399 2 -405 0 -9 19 -13 60 -13 l60 0 0 198 c0
174 2 202 19 232 53 99 252 112 298 19 9 -17 13 -88 13 -236 l0 -213 60 0 60
0 0 225 c0 246 -4 270 -56 319 -71 66 -237 74 -338 17 l-56 -31 0 140 0 140
-62 0 -63 0 3 -392z"/>
<path d="M6593 1712 l-53 -26 0 -73 0 -73 -45 0 -45 0 0 -40 0 -40 45 0 45 0
0 -209 c0 -115 4 -221 10 -235 19 -52 113 -84 204 -71 33 5 43 11 40 23 -14
76 -11 72 -62 72 -26 0 -53 5 -60 12 -9 9 -12 69 -12 210 l0 198 60 0 60 0 0
40 0 40 -60 0 -60 0 0 100 c0 55 -3 100 -7 99 -5 0 -32 -12 -60 -27z"/>
<path d="M7120 1535 c-114 -38 -168 -94 -196 -205 -21 -84 -13 -167 24 -240
49 -99 147 -150 289 -150 129 0 222 50 269 146 32 65 27 74 -47 74 -42 0 -48
-3 -53 -25 -23 -91 -153 -142 -253 -100 -82 35 -113 91 -113 210 0 124 35 182
129 213 83 29 180 -3 216 -71 20 -36 21 -37 65 -31 70 9 71 10 59 41 -19 50
-59 93 -112 120 -65 33 -205 42 -277 18z"/>
<path d="M8675 1537 c-140 -47 -215 -150 -215 -297 0 -125 55 -217 158 -266
46 -22 76 -28 153 -32 156 -7 257 35 315 133 14 25 25 47 23 49 -2 2 -32 6
-66 10 -54 6 -62 5 -67 -12 -9 -28 -67 -78 -105 -91 -94 -31 -212 7 -255 82
-13 23 -26 57 -30 75 l-5 32 264 0 265 0 0 48 c0 107 -59 200 -156 248 -45 22
-72 27 -147 30 -59 3 -106 -1 -132 -9z m188 -79 c53 -16 101 -65 114 -117 l11
-41 -199 0 c-153 0 -199 3 -199 13 0 6 9 30 19 53 39 85 147 124 254 92z"/>
<path d="M9541 1535 c-24 -7 -61 -28 -82 -45 l-39 -31 0 41 0 40 -55 0 -55 0
0 -295 0 -295 60 0 60 0 1 183 c1 212 8 247 62 291 33 26 48 31 106 34 49 3
78 -1 102 -12 61 -29 64 -38 67 -278 l3 -218 60 0 59 0 0 223 c0 245 -7 280
-65 325 -61 48 -193 65 -284 37z"/>
<path d="M6160 1245 l0 -295 60 0 60 0 0 295 0 295 -60 0 -60 0 0 -295z"/>
</g>
</svg>
